<svg xmlns="http://www.w3.org/2000/svg" width="5355" height="3786" viewBox="0 0 5355 3786"><g fill="#61dafb" transform="translate(1118.329 496.066)"><path d="M3119.934 1389.62c0-206.694-258.829-402.576-655.657-524.049 91.576-404.484 50.876-726.291-128.46-829.32C2294.48 12.084 2246.149.636 2193.366.636V142.46c29.253 0 52.783 5.724 72.497 16.535 86.488 49.607 124.009 238.494 94.756 481.439-6.996 59.782-18.443 122.744-32.433 186.978-124.645-30.527-260.737-54.058-403.824-69.322-85.852-117.656-174.884-224.501-264.552-317.99 207.317-192.703 401.916-298.276 534.192-298.276V0c-174.885 0-403.824 124.652-635.307 340.886C1327.212 125.924 1098.273 2.544 923.39 2.544v141.824c131.64 0 326.874 104.937 534.191 296.367-89.032 93.49-178.064 199.699-262.644 317.355-143.723 15.264-279.815 38.795-404.46 69.958-14.626-63.598-25.437-125.288-33.068-184.434-29.89-242.945 6.995-431.832 92.847-482.075 19.078-11.447 43.88-16.535 73.134-16.535V3.18c-53.42 0-101.751 11.448-143.723 35.615-178.7 103.029-218.765 424.2-126.553 827.412C257.557 988.316 0 1183.562 0 1389.62s258.829 402.577 655.657 524.05c-91.576 404.484-50.876 726.29 128.46 829.32 41.336 24.167 89.668 35.615 143.087 35.615 174.884 0 403.824-124.653 635.307-340.887 231.483 214.962 460.422 338.343 635.306 338.343 53.42 0 101.751-11.448 143.723-35.615 178.7-103.03 218.765-424.2 126.553-827.413 394.284-121.472 651.841-317.355 651.841-523.413m-827.997-424.2c-23.53 82.042-52.783 166.628-85.852 251.213-26.074-50.878-53.42-101.757-83.309-152.635-29.253-50.879-60.414-100.485-91.576-148.82 90.304 13.356 177.428 29.891 260.737 50.242m-291.262 677.321c-49.603 85.858-100.479 167.263-153.262 242.945-94.755 8.268-190.783 12.72-287.446 12.72s-192.055-4.452-286.174-12.084c-52.783-75.682-104.295-156.451-153.898-241.673-48.332-83.314-92.212-167.9-132.276-253.12 39.428-85.222 83.944-170.444 131.64-253.757 49.603-85.858 100.479-167.264 153.262-242.946 94.755-8.267 190.783-12.72 287.446-12.72s192.055 4.453 286.174 12.084c52.783 75.682 104.295 156.452 153.898 241.674 48.332 83.313 92.212 167.899 132.276 253.12-40.064 85.222-83.944 170.444-131.64 253.757m205.41-82.678c34.34 85.222 63.594 170.444 87.76 253.121-83.309 20.352-171.069 37.523-262.009 50.879 31.162-48.97 62.323-99.213 91.576-150.728 29.253-50.878 56.599-102.393 82.673-153.272m-644.846 678.593c-59.143-61.054-118.285-129.104-176.792-203.514 57.235 2.544 115.741 4.452 174.884 4.452s118.921-1.272 176.792-4.452a2482 2482 0 0 1-174.884 203.514m-473.141-374.593c-90.304-13.356-177.428-29.891-260.737-50.243 23.53-82.041 52.783-166.627 85.852-251.213 26.074 50.879 53.42 101.758 83.309 152.636q44.834 76.318 91.576 148.82m469.961-1323.478c59.143 61.054 118.285 129.104 176.792 203.514-57.235-2.544-115.741-4.452-174.884-4.452s-118.921 1.272-176.792 4.452a2482 2482 0 0 1 174.884-203.514m-470.597 374.593c-31.161 48.97-62.323 99.213-91.576 150.728-29.253 50.878-56.599 101.757-82.673 152.635-34.34-85.221-63.594-170.443-87.76-253.12 83.309-19.716 171.069-36.887 262.009-50.243m-575.528 796.25c-225.124-96.034-370.755-221.958-370.755-321.808s145.631-226.41 370.755-321.806c54.69-23.532 114.47-44.52 176.156-64.235 36.249 124.653 83.944 254.393 143.087 387.313-58.507 132.285-105.567 261.389-141.18 385.405-62.958-19.715-122.736-41.338-178.063-64.87m342.137 908.817c-86.488-49.606-124.009-238.493-94.756-481.438 6.996-59.782 18.443-122.745 32.433-186.979 124.645 30.527 260.737 54.059 403.824 69.322 85.852 117.657 174.884 224.502 264.552 317.991-207.317 192.703-401.916 298.276-534.192 298.276-28.617-.636-52.783-6.36-71.861-17.172m1508.455-484.618c29.89 242.945-6.995 431.832-92.847 482.074-19.078 11.448-43.88 16.536-73.134 16.536-131.64 0-326.874-104.937-534.191-296.368 89.032-93.489 178.064-199.698 262.644-317.355 143.723-15.263 279.815-38.795 404.46-69.958 14.626 64.235 26.073 125.925 33.068 185.071m244.838-424.2c-54.69 23.532-114.47 44.519-176.156 64.234-36.249-124.652-83.944-254.392-143.087-387.313 58.507-132.284 105.567-261.388 141.18-385.405 62.958 19.716 122.736 41.34 178.7 64.87 225.123 96.034 370.754 221.958 370.754 321.807s-146.267 226.41-371.39 321.807"/><path d="M1537.378 1099.483c7.65-1.006 15.73-.321 23.438-.321 28.559 0 56.598 4.44 83.922 12.857 34.872 10.742 67.352 27.916 96.02 50.51 35.136 27.694 64.25 64.018 82.932 104.784 34.952 76.27 34.696 168.704-1.113 244.653-23.154 49.107-60.299 90.208-105.258 120.18-36.683 24.456-79.586 39.425-123.237 44.725-55.561 6.747-115.628-3.112-165.576-28.762-93.766-48.153-157.513-145.067-158.774-251.274-.243-20.476.075-41.075 4.123-61.352 6.592-33.024 18.085-64.946 35.347-93.923 18.672-31.346 42.79-59.008 71.673-81.31 33.87-26.154 73.234-44.965 114.92-54.536 9.758-2.24 19.555-3.512 29.399-4.716l3.476-.423c2.899-.353 5.801-.71 8.708-1.092m-97.09 482.57c-12.902 1.386-26.51 3.738-37.583 10.997 2.492.6 5.35.005 7.95 0 6.246-.01 12.552-.245 18.792.029 15.62.687 31.895 3.19 46.98 7.333 11.587 3.183 22.346 8.215 33.118 13.252l2.694 1.259c6.288 2.931 12.605 5.812 19.117 8.276 19.629 7.427 39.168 9.735 59.99 9.735h1.906c9.847-.014 19.615-.205 29.172-2.9-5.31-2.833-12.91-2.301-18.792-3.481-12.761-2.56-25.309-5.687-37.583-10.074-19.36-6.92-37.192-17.311-56.376-24.57-21.857-8.272-46.079-12.36-69.385-9.856m19.515-54.992c-25.568 0-51.427 4.512-74.445 16.133-5.576 2.816-10.877 6.17-15.9 9.889-1.531 1.133-4.245 2.59-4.811 4.56-.574 1.998 1.478 3.672 2.642 4.95 5.754-3.07 11.22-6.322 17.347-8.655 39.625-15.08 87.662-11.918 127.206 1.908 19.72 6.896 37.89 17.208 57.098 25.295 21.482 9.044 43.423 14.908 66.494 17.915 27.214 3.546 58.241.672 83.118-11.63 8.74-4.322 20.877-10.91 24.573-20.481-4.565.4-8.672 2.359-13.01 3.71-6.896 2.148-13.875 3.97-20.96 5.391-24.01 4.819-49.543 5.814-73.721 1.44-24.622-4.453-47.36-13.76-70.123-23.22l-3.036-1.261c-11.638-4.837-23.304-9.658-35.255-13.837-21.466-7.506-44.472-12.107-67.217-12.107m44.811-393.453c-30.649 6.783-58.104 19.99-84.563 36.64-15.36 9.665-30.055 19.567-43.366 32.007-19.795 18.501-34.924 40.988-48.118 64.475-13.595 24.199-22.312 52.402-26.525 79.767-4.133 26.847-4.814 55.074-.08 81.943 5.919 33.592 17.183 65.115 34.971 94.27 5.978-2.797 10.222-9.174 15.178-13.47 10.008-8.673 20.515-16.712 31.802-23.65 4.178-2.568 8.47-4.562 13.01-6.39 1.712-.689 4.511-1.319 5.317-3.203 1.28-2.992-1.088-8.2-1.495-11.3-1.161-8.866-1.862-17.883-1.643-26.83.636-26.057 5.496-52.478 14.75-76.867 6.974-18.377 17.628-35.062 30.249-50.036 4.282-5.08 8.835-9.81 13.534-14.502a51 51 0 0 1 1.8-1.695l.74-.669c2.1-1.894 4.186-3.82 5.41-6.339-9.062.006-18.125 2.624-26.742 5.282-18.564 5.725-36.647 14.221-52.04 26.208-7.02 5.469-12.162 12.636-18.802 18.391-2.036 1.766-5.685 4.132-8.5 2.8-4.251-2.012-3.595-10.395-4.082-14.247-1.874-14.82 3.73-33.564 10.851-46.41 11.432-20.622 32.57-38.23 57.395-37.615 10.72.265 20.106 3.997 30.356 6.433-2.6-3.7-6.084-6.395-9.396-9.427-8.116-7.43-16.993-14.215-26.742-19.347-2.615-1.377-5.364-2.393-8.133-3.367l-1.663-.582q-1.248-.435-2.491-.887c-2.083-.763-4.705-1.812-5.488-4.13-1.45-4.294 6.267-8.27 9.102-10.081 10.958-7 24.395-12.757 37.583-13.082 20.61-.506 40.748 10.95 49.238 30.446 3.388 7.78 4.067 16.067 4.678 24.383l.114 1.56q.086 1.17.177 2.338c6.473-5.286 11.026-13.066 17.347-18.728 14.781-13.242 35.012-19.121 54.207-13.16 17.347 5.387 32.423 17.38 41.297 33.339 2.321 4.175 8.798 14.38 4.119 18.539-3.662 3.256-8.307.719-12.17-.632-3.987-1.393-8.156-2.092-12.286-2.922-10.503-2.11-22.721-1.89-33.247-.036-6.806 1.198-13.457 3.625-20.238 4.63v1.45c18.542.154 36.478 10.75 45.626 26.831 3.79 6.662 5.683 14.287 7.135 21.755 1.796 9.23.534 19.285-1.984 28.28-.844 3.017-2.376 8.13-5.976 8.825-2.545.49-4.706-2.048-6.159-3.759-3.808-4.486-7.43-8.75-11.9-12.624-11.305-9.8-23.259-18.838-35.415-27.554-6.454-4.628-13.523-10.645-20.96-13.473 2.091 5.046 4.14 9.737 4.85 15.229 2.092 16.153-4.658 31.358-14.79 43.51-3.093 3.708-6.4 7.443-10.297 10.324-1.616 1.195-3.644 2.755-5.782 2.418-6.703-1.061-7.501-11.183-8.529-16.369-3.48-17.564-2.083-35.008 2.747-52.211-4.297 2.183-7.403 6.96-10.1 10.877-5.937 8.622-11.087 17.74-14.78 27.556-14.71 39.1-14.568 84.897 4.487 122.538 2.128 4.204 5.357 3.64 9.551 3.64 5.056 0 10.16-.254 15.178.417 1.953.261 4.665.029 6.21 1.47 1.852 1.728.865 4.69.439 6.815-1.191 5.941-1.59 11.342-1.59 17.403 7.912-1.228 10.105-13.934 12.91-20.304 3.177-7.216 6.41-14.44 9.35-21.755 1.446-3.595 3.38-7.615 2.872-11.602-.57-4.481-3.8-9.232-6.053-13.053-4.263-7.232-9.108-14.674-12.246-22.48-2.509-6.24-.173-14.038 6.9-16.267 3.902-1.23 8.065 1.182 10.604 4.007 3.606 4.012 6.347 9.35 8.941 14.538l.738 1.477c.98 1.96 1.95 3.878 2.947 5.672l30.153 54.387a1216 1216 0 0 0 7.747 13.778c1.022 1.784 2.063 4.538 4.156 5.299 1.865.677 4.413-.286 6.267-.658 4.815-.966 9.623-2.009 14.456-2.883 5.79-1.048 14.618-.852 18.791-5.384-6.104-1.937-13.16-1.822-19.514-1.386-.786.054-1.589.155-2.4.262l-.697.092c-2.908.38-5.878.685-8.456-.956-5.22-3.323-8.689-10.998-11.882-16.14-7.873-12.682-15.29-25.555-22.83-38.434-2.403-4.106-4.878-8.18-7.208-12.328-.9-1.604-2.235-3.718-.945-5.486 1.341-1.839 4.25-1.965 6.895-1.97h1.153c.842-.002 1.625-.016 2.281-.103 10.76-1.418 21.671-2.593 32.525-2.593-.845-2.944-3.261-6.272-2.489-9.424 1.73-7.053 11.859-9.26 16.57-4.199 3.162 3.397 5 8.073 7.058 12.173 2.715 5.411 5.807 10.643 8.715 15.953 5.09 9.297 10.649 18.34 15.883 27.556.467.824.95 1.643 1.438 2.461l.733 1.228c2.203 3.686 4.39 7.406 5.576 11.54-18.179-.834-31.825-21.974-39.752-36.259-.632 2.288.396 4.329 1.217 6.527 1.708 4.565 3.75 8.912 6.318 13.053 3.669 5.913 7.874 12.002 13.425 16.295 9.85 7.617 22.84 7.66 34.693 6.845 7.6-.523 17.097-3.989 24.574-1.637 7.464 2.348 10.468 10.594 6.035 16.93-3.32 4.745-7.752 6.537-13.263 7.252 3.897 8.374 9.003 16.147 12.703 24.655 1.542 3.545 3.149 8.977 6.843 10.847 2.46 1.244 5.983.085 8.642.03-2.669-7.073-7.665-13.075-10.119-20.304 7.481.343 14.717 4.254 21.683 6.75 15.811 5.665 31.392 11.94 46.98 18.195 5.557 2.23 11.147 4.438 16.623 6.862 2.004.887 4.777 2.96 6.992 1.684 1.807-1.042 2.976-3.527 4.09-5.21 3.117-4.71 5.94-9.598 8.737-14.503 11.199-19.643 19.413-41.167 24.9-63.089 18.1-72.3 2.573-152.076-40.92-212.47-16.712-23.205-37.728-43.266-60.897-59.88-57.984-41.573-134.056-58.223-203.819-42.786m118.533 360.552c-15.371 4.015-31.212 7.653-46.98 9.696 2.074 7.073 7.141 13.952 10.85 20.305 1.435 2.456 2.969 5.745 5.803 6.811 3.201 1.204 7.07-.75 10.09-1.735-1.399-3.834-3.752-7.283-5.678-10.878-.794-1.482-2.022-3.237-1.368-4.997 1.237-3.325 6.37-3.13 9.214-3.707 7.493-1.523 14.908-3.424 22.406-4.929 2.762-.554 6.608-2.057 9.385-1.129 3.637 1.216 4.746 5.559 7.39 7.95 3.031 2.742 7.564 3.163 11.412 3.912-2.348-5.294-6.25-9.926-8.753-15.229-1.455-3.084-2.65-7.621-5.836-9.403-4.388-2.456-13.45 2.161-17.935 3.333m-96.85-35.264c-.724 9.194-3.539 16.674-7.95 24.656 5.055.64 10.212.87 15.178 2.102 3.721.924 7.15 2.686 10.841 3.699-1.973-5.408-5.634-10.233-8.47-15.228-2.864-5.042-5.427-11.17-9.6-15.229"/></g></svg>